<svg xmlns="http://www.w3.org/2000/svg" viewBox="0 0 72 72">
  <!-- This or That / Compare - two hands in different positions -->
  <g>
    <!-- Left hand (option A) - palm up -->
    <ellipse cx="18" cy="40" rx="10" ry="6" fill="#FCEA2B" stroke="#3F3F3F" stroke-width="2"/>
    <path d="M12 38 L10 32" stroke="#FCEA2B" stroke-width="4" stroke-linecap="round"/>
    <path d="M12 38 L10 32" stroke="#3F3F3F" stroke-width="1.5" stroke-linecap="round"/>
    <path d="M16 36 L14 30" stroke="#FCEA2B" stroke-width="4" stroke-linecap="round"/>
    <path d="M16 36 L14 30" stroke="#3F3F3F" stroke-width="1.5" stroke-linecap="round"/>
    <path d="M20 36 L20 28" stroke="#FCEA2B" stroke-width="4" stroke-linecap="round"/>
    <path d="M20 36 L20 28" stroke="#3F3F3F" stroke-width="1.5" stroke-linecap="round"/>
    <path d="M24 36 L26 30" stroke="#FCEA2B" stroke-width="4" stroke-linecap="round"/>
    <path d="M24 36 L26 30" stroke="#3F3F3F" stroke-width="1.5" stroke-linecap="round"/>

    <!-- "A" label -->
    <circle cx="18" cy="56" r="8" fill="#92D3F5" stroke="#3F3F3F" stroke-width="1.5"/>
    <text x="18" y="60" text-anchor="middle" font-family="Arial, sans-serif" font-size="10" font-weight="bold" fill="#3F3F3F">A</text>

    <!-- Right hand (option B) - palm up -->
    <ellipse cx="54" cy="40" rx="10" ry="6" fill="#FCEA2B" stroke="#3F3F3F" stroke-width="2"/>
    <path d="M48 38 L46 32" stroke="#FCEA2B" stroke-width="4" stroke-linecap="round"/>
    <path d="M48 38 L46 32" stroke="#3F3F3F" stroke-width="1.5" stroke-linecap="round"/>
    <path d="M52 36 L50 30" stroke="#FCEA2B" stroke-width="4" stroke-linecap="round"/>
    <path d="M52 36 L50 30" stroke="#3F3F3F" stroke-width="1.5" stroke-linecap="round"/>
    <path d="M56 36 L56 28" stroke="#FCEA2B" stroke-width="4" stroke-linecap="round"/>
    <path d="M56 36 L56 28" stroke="#3F3F3F" stroke-width="1.5" stroke-linecap="round"/>
    <path d="M60 36 L62 30" stroke="#FCEA2B" stroke-width="4" stroke-linecap="round"/>
    <path d="M60 36 L62 30" stroke="#3F3F3F" stroke-width="1.5" stroke-linecap="round"/>

    <!-- "B" label -->
    <circle cx="54" cy="56" r="8" fill="#92D3F5" stroke="#3F3F3F" stroke-width="1.5"/>
    <text x="54" y="60" text-anchor="middle" font-family="Arial, sans-serif" font-size="10" font-weight="bold" fill="#3F3F3F">B</text>

    <!-- VS divider -->
    <text x="36" y="44" text-anchor="middle" font-family="Arial, sans-serif" font-size="10" font-weight="bold" fill="#666">vs</text>
  </g>
</svg>
