<svg xmlns="http://www.w3.org/2000/svg" viewBox="0 0 72 72">
  <!-- Measure the Loaf - hands apart showing scope -->
  <g>
    <!-- Left hand - palm facing right -->
    <path d="M8 28 L8 44 Q8 48 12 48 L18 48 Q22 48 22 44 L22 32 Q22 28 18 28 L12 28 Q8 28 8 32 Z"
          fill="#FCEA2B" stroke="#3F3F3F" stroke-width="2"/>
    <!-- Left fingers -->
    <path d="M14 28 L14 20" stroke="#FCEA2B" stroke-width="5" stroke-linecap="round"/>
    <path d="M14 28 L14 20" stroke="#3F3F3F" stroke-width="2" stroke-linecap="round"/>
    <path d="M18 28 L18 18" stroke="#FCEA2B" stroke-width="5" stroke-linecap="round"/>
    <path d="M18 28 L18 18" stroke="#3F3F3F" stroke-width="2" stroke-linecap="round"/>
    <path d="M10 32 L6 30" stroke="#FCEA2B" stroke-width="4" stroke-linecap="round"/>
    <path d="M10 32 L6 30" stroke="#3F3F3F" stroke-width="2" stroke-linecap="round"/>

    <!-- Right hand - palm facing left -->
    <path d="M50 28 L50 44 Q50 48 54 48 L60 48 Q64 48 64 44 L64 32 Q64 28 60 28 L54 28 Q50 28 50 32 Z"
          fill="#FCEA2B" stroke="#3F3F3F" stroke-width="2"/>
    <!-- Right fingers -->
    <path d="M54 28 L54 18" stroke="#FCEA2B" stroke-width="5" stroke-linecap="round"/>
    <path d="M54 28 L54 18" stroke="#3F3F3F" stroke-width="2" stroke-linecap="round"/>
    <path d="M58 28 L58 20" stroke="#FCEA2B" stroke-width="5" stroke-linecap="round"/>
    <path d="M58 28 L58 20" stroke="#3F3F3F" stroke-width="2" stroke-linecap="round"/>
    <path d="M62 32 L66 30" stroke="#FCEA2B" stroke-width="4" stroke-linecap="round"/>
    <path d="M62 32 L66 30" stroke="#3F3F3F" stroke-width="2" stroke-linecap="round"/>

    <!-- Distance indicator arrows -->
    <path d="M24 36 L46 36" stroke="#92D3F5" stroke-width="2" stroke-dasharray="4,2"/>
    <polygon points="24,36 28,33 28,39" fill="#92D3F5"/>
    <polygon points="46,36 42,33 42,39" fill="#92D3F5"/>
  </g>
</svg>
